<svg xmlns="http://www.w3.org/2000/svg" xmlns:xlink="http://www.w3.org/1999/xlink">
    <symbol id="icon-logo" viewBox="0 4 108 40">
        <path d="M35.170498,4.2 L42.290498,9.92 L42.250498,21.84 L41.610498,23.16 L42.250498,23.8 L42.250498,39.36 L41.170498,43.24 L29.810498,43.24 L29.810498,39.6 L18.930498,39.6 L18.930498,8.08 L20.010498,4.2 L35.170498,4.2 Z M34.570498,5.92 L21.730498,5.92 L21.730498,34 L29.650498,34 L29.650498,22.52 L32.610498,25.52 L32.610498,37.64 L40.530498,37.64 L40.530498,24.52 L36.170498,20.16 L40.530498,20.12 L40.570498,10.76 L34.570498,5.92 Z" id="Combined-Shape"/>
        <polygon points="32.610498 17.24 32.610498 12.76 29.650498 12.76 29.650498 17.24"/>
        <path d="M63.890498,4.2 L63.890498,23.84 L62.810498,27.72 L58.930498,27.72 L58.930498,35.72 L57.850498,39.6 L46.530498,39.6 L46.530498,26.68 L40.530498,20.8 L40.530498,8.08 L41.610498,4.2 L63.890498,4.2 Z M51.250498,5.92 L43.330498,5.92 L43.330498,16.2 L49.330498,22.08 L49.330498,34 L57.210498,34 L57.210498,22.12 L62.170498,22.12 L62.170498,5.92 L54.210498,5.92 L54.210498,17.24 L51.250498,17.24 L51.250498,5.92 Z" id="Combined-Shape"/>
        <path d="M78.730498,4.2 L85.490498,14.64 L85.490498,35.72 L84.410498,39.6 L62.130498,39.6 L62.130498,8.08 L63.210498,4.2 L78.730498,4.2 Z M77.770498,5.92 L64.930498,5.92 L64.930498,34 L72.850498,34 L72.850498,22.12 L75.850498,22.12 L75.850498,34 L83.770498,34 L83.770498,15.16 L77.770498,5.92 Z" id="Combined-Shape"/>
        <polygon points="75.850498 17.24 72.850498 11.48 72.850498 17.24"/>
        <path d="M100.090498,4.2 L107.090498,11.12 L107.090498,35.72 L106.010498,39.6 L83.730498,39.6 L83.730498,8.08 L84.810498,4.2 L100.090498,4.2 Z M99.370498,5.92 L86.530498,5.92 L86.530498,34 L94.490498,34 L94.490498,12.76 L97.450498,12.76 L97.450498,34 L105.370498,34 L105.370498,11.84 L99.370498,5.92 Z" id="N"/>
        <path d="M12.5320982,4.15488199 C13.5935736,4.54180858 14.2655497,5.56989389 14.2224906,6.72083011 L14.2097022,6.90350223 L13.244,14.484 L18.4405803,14.4847295 C19.2542455,14.4847541 20.0071155,14.8708476 20.4867232,15.5059965 L20.5924544,15.6569281 L20.6879037,15.8163276 C20.9438918,16.2807091 21.0473173,16.8041329 21.0042392,17.3065282 C21.028743,19.7083501 21.0276387,20.939672 21,21 C19.3993524,24.4937943 16.3340737,30.4712114 11.8041638,38.9322512 L11.5,39.5 L6.5,39.5 L6.5,29.5 L4.03220513e-12,29.5 L4.03220513e-12,23 L0.0113152036,22.9962082 C0.000924042903,22.581489 0.0896126414,22.1652399 0.276686437,21.7846659 L0.378418885,21.5975241 L9.42650707,5.29723083 L9.48513963,5.19841685 C10.1295993,4.1801385 11.3936583,3.73990046 12.5320982,4.15488199 Z M11.1751152,6.26798803 L2.09492659,22.6239749 C1.98680585,22.8047825 1.98222458,23.0315661 2.08295024,23.2168335 C2.18367589,23.4021009 2.37396257,23.5168902 2.58039836,23.5169161 L9.93543095,23.5169161 L8.94339854,33.3654933 C8.92334107,33.6353618 9.08458669,33.884604 9.33441653,33.9699015 C9.58424637,34.055199 9.85847234,33.9546366 9.99941005,33.7260394 L18.9295541,17.3718106 C19.034979,17.1907626 19.0375915,16.9654195 18.9363938,16.7818394 C18.8351968,16.5982229 18.6457877,16.4847357 18.4405201,16.4847295 L10.9739159,16.4847295 L12.225712,6.65094918 C12.2533596,6.38004804 12.0968508,6.12495691 11.8471496,6.03393637 C11.5974483,5.94291584 11.3196097,6.03967963 11.1751152,6.26798803 Z" id="mark"/>
    </symbol>

    <symbol id="icon-github" viewBox="0 0 70 70">
        <path d="M23.4133065,56.3638976 C23.4133065,56.6533886 23.0887097,56.8849814 22.6794355,56.8849814 C22.2137097,56.9284051 21.8891129,56.6968123 21.8891129,56.3638976 C21.8891129,56.0744066 22.2137097,55.8428138 22.6229839,55.8428138 C23.046371,55.7993902 23.4133065,56.030983 23.4133065,56.3638976 Z M19.0241935,55.7125429 C18.9254032,56.0020339 19.2076613,56.3349485 19.6310484,56.4217958 C19.9979839,56.5665413 20.421371,56.4217958 20.5060484,56.1323048 C20.5907258,55.8428138 20.3225806,55.5098992 19.8991935,55.3796282 C19.5322581,55.2783064 19.1229839,55.4230519 19.0241935,55.7125429 Z M25.2620968,55.4664755 C24.8528226,55.5677974 24.5705645,55.8428138 24.6129032,56.1757285 C24.6552419,56.4652195 25.0221774,56.6533886 25.4455645,56.5520668 C25.8548387,56.4507449 26.1370968,56.1757285 26.0947581,55.8862375 C26.0524194,55.611221 25.671371,55.4230519 25.2620968,55.4664755 Z M34.5483871,0 C14.9737903,0 0,15.2417011 0,35.317902 C0,51.3701779 9.85080645,65.1065258 23.921371,69.9410255 C25.7278226,70.2739402 26.3629032,69.1304507 26.3629032,68.189605 C26.3629032,67.2921829 26.3205645,62.3418868 26.3205645,59.3022313 C26.3205645,59.3022313 16.4415323,61.4734138 14.3669355,54.9888154 C14.3669355,54.9888154 12.7580645,50.7767213 10.4435484,49.6911301 C10.4435484,49.6911301 7.21169355,47.4186257 10.6693548,47.4620494 C10.6693548,47.4620494 14.1834677,47.7515404 16.1169355,51.1964833 C19.2076613,56.7836596 24.3870968,55.1769845 26.4052419,54.2216642 C26.7298387,51.9057362 27.6471774,50.2990612 28.6633065,49.3437409 C20.7741935,48.4463188 12.8145161,47.2738802 12.8145161,33.3493632 C12.8145161,29.3688619 13.8870968,27.371374 16.1451613,24.8238532 C15.7782258,23.8830075 14.578629,20.0038281 16.5120968,14.9956338 C19.4616935,14.054788 26.25,18.9037623 26.25,18.9037623 C29.0725806,18.0931875 32.1068548,17.6734255 35.1129032,17.6734255 C38.1189516,17.6734255 41.1532258,18.0931875 43.9758065,18.9037623 C43.9758065,18.9037623 50.7641129,14.0403135 53.7137097,14.9956338 C55.6471774,20.0183026 54.4475806,23.8830075 54.0806452,24.8238532 C56.3387097,27.3858486 57.7217742,29.3833365 57.7217742,33.3493632 C57.7217742,47.3173039 49.4092742,48.4318442 41.5201613,49.3437409 C42.8185484,50.4872303 43.9193548,52.6584128 43.9193548,56.0599321 C43.9193548,60.9378554 43.8770161,66.9737428 43.8770161,68.1606559 C43.8770161,69.1015016 44.5262097,70.2449911 46.3185484,69.9120764 C60.4314516,65.1065258 70,51.3701779 70,35.317902 C70,15.2417011 54.1229839,0 34.5483871,0 Z M13.7177419,49.9227229 C13.5342742,50.0674684 13.5766129,50.400383 13.8165323,50.6753995 C14.0423387,50.9069923 14.3669355,51.0083141 14.5504032,50.820145 C14.733871,50.6753995 14.6915323,50.3424848 14.4516129,50.0674684 C14.2258065,49.8358756 13.9012097,49.7345537 13.7177419,49.9227229 Z M12.1935484,48.7502843 C12.0947581,48.9384535 12.2358871,49.1700463 12.5181452,49.3147918 C12.7439516,49.4595373 13.0262097,49.4161136 13.125,49.2134699 C13.2237903,49.0253008 13.0826613,48.793708 12.8004032,48.6489625 C12.5181452,48.5621152 12.2923387,48.6055388 12.1935484,48.7502843 Z M16.766129,53.9032241 C16.5403226,54.0913933 16.625,54.5256298 16.9495968,54.8006462 C17.2741935,55.1335609 17.6834677,55.1769845 17.8669355,54.9453917 C18.0504032,54.7572226 17.9657258,54.3229861 17.6834677,54.0479696 C17.3729839,53.715055 16.9495968,53.6716313 16.766129,53.9032241 Z M15.1572581,51.7754653 C14.9314516,51.9202108 14.9314516,52.2965491 15.1572581,52.6294637 C15.3830645,52.9623784 15.7641129,53.1071239 15.9475806,52.9623784 C16.1733871,52.7742092 16.1733871,52.3978709 15.9475806,52.0649563 C15.75,51.7320416 15.3830645,51.5872961 15.1572581,51.7754653 Z" id="icon"/>
    </symbol>
</svg>
