<svg xmlns="http://www.w3.org/2000/svg" xmlns:xlink="http://www.w3.org/1999/xlink">
    <!--Hero: Logo-->
    <symbol id="icon-logo" viewBox="0 4 108 40">
        <path d="M35.170498,4.2 L42.290498,9.92 L42.250498,21.84 L41.610498,23.16 L42.250498,23.8 L42.250498,39.36 L41.170498,43.24 L29.810498,43.24 L29.810498,39.6 L18.930498,39.6 L18.930498,8.08 L20.010498,4.2 L35.170498,4.2 Z M34.570498,5.92 L21.730498,5.92 L21.730498,34 L29.650498,34 L29.650498,22.52 L32.610498,25.52 L32.610498,37.64 L40.530498,37.64 L40.530498,24.52 L36.170498,20.16 L40.530498,20.12 L40.570498,10.76 L34.570498,5.92 Z"/>
        <polygon points="32.610498 17.24 32.610498 12.76 29.650498 12.76 29.650498 17.24"/>
        <path d="M63.890498,4.2 L63.890498,23.84 L62.810498,27.72 L58.930498,27.72 L58.930498,35.72 L57.850498,39.6 L46.530498,39.6 L46.530498,26.68 L40.530498,20.8 L40.530498,8.08 L41.610498,4.2 L63.890498,4.2 Z M51.250498,5.92 L43.330498,5.92 L43.330498,16.2 L49.330498,22.08 L49.330498,34 L57.210498,34 L57.210498,22.12 L62.170498,22.12 L62.170498,5.92 L54.210498,5.92 L54.210498,17.24 L51.250498,17.24 L51.250498,5.92 Z"/>
        <path d="M78.730498,4.2 L85.490498,14.64 L85.490498,35.72 L84.410498,39.6 L62.130498,39.6 L62.130498,8.08 L63.210498,4.2 L78.730498,4.2 Z M77.770498,5.92 L64.930498,5.92 L64.930498,34 L72.850498,34 L72.850498,22.12 L75.850498,22.12 L75.850498,34 L83.770498,34 L83.770498,15.16 L77.770498,5.92 Z"/>
        <polygon points="75.850498 17.24 72.850498 11.48 72.850498 17.24"/>
        <path d="M100.090498,4.2 L107.090498,11.12 L107.090498,35.72 L106.010498,39.6 L83.730498,39.6 L83.730498,8.08 L84.810498,4.2 L100.090498,4.2 Z M99.370498,5.92 L86.530498,5.92 L86.530498,34 L94.490498,34 L94.490498,12.76 L97.450498,12.76 L97.450498,34 L105.370498,34 L105.370498,11.84 L99.370498,5.92 Z"/>
        <path d="M12.5320982,4.15488199 C13.5935736,4.54180858 14.2655497,5.56989389 14.2224906,6.72083011 L14.2097022,6.90350223 L13.244,14.484 L18.4405803,14.4847295 C19.2542455,14.4847541 20.0071155,14.8708476 20.4867232,15.5059965 L20.5924544,15.6569281 L20.6879037,15.8163276 C20.9438918,16.2807091 21.0473173,16.8041329 21.0042392,17.3065282 C21.028743,19.7083501 21.0276387,20.939672 21,21 C19.3993524,24.4937943 16.3340737,30.4712114 11.8041638,38.9322512 L11.5,39.5 L6.5,39.5 L6.5,29.5 L4.03220513e-12,29.5 L4.03220513e-12,23 L0.0113152036,22.9962082 C0.000924042903,22.581489 0.0896126414,22.1652399 0.276686437,21.7846659 L0.378418885,21.5975241 L9.42650707,5.29723083 L9.48513963,5.19841685 C10.1295993,4.1801385 11.3936583,3.73990046 12.5320982,4.15488199 Z M11.1751152,6.26798803 L2.09492659,22.6239749 C1.98680585,22.8047825 1.98222458,23.0315661 2.08295024,23.2168335 C2.18367589,23.4021009 2.37396257,23.5168902 2.58039836,23.5169161 L9.93543095,23.5169161 L8.94339854,33.3654933 C8.92334107,33.6353618 9.08458669,33.884604 9.33441653,33.9699015 C9.58424637,34.055199 9.85847234,33.9546366 9.99941005,33.7260394 L18.9295541,17.3718106 C19.034979,17.1907626 19.0375915,16.9654195 18.9363938,16.7818394 C18.8351968,16.5982229 18.6457877,16.4847357 18.4405201,16.4847295 L10.9739159,16.4847295 L12.225712,6.65094918 C12.2533596,6.38004804 12.0968508,6.12495691 11.8471496,6.03393637 C11.5974483,5.94291584 11.3196097,6.03967963 11.1751152,6.26798803 Z"/>
    </symbol>
    <!--Hero: GitHub-->
    <symbol id="icon-github" viewBox="0 0 70 70">
        <path d="M23.4133065,56.3638976 C23.4133065,56.6533886 23.0887097,56.8849814 22.6794355,56.8849814 C22.2137097,56.9284051 21.8891129,56.6968123 21.8891129,56.3638976 C21.8891129,56.0744066 22.2137097,55.8428138 22.6229839,55.8428138 C23.046371,55.7993902 23.4133065,56.030983 23.4133065,56.3638976 Z M19.0241935,55.7125429 C18.9254032,56.0020339 19.2076613,56.3349485 19.6310484,56.4217958 C19.9979839,56.5665413 20.421371,56.4217958 20.5060484,56.1323048 C20.5907258,55.8428138 20.3225806,55.5098992 19.8991935,55.3796282 C19.5322581,55.2783064 19.1229839,55.4230519 19.0241935,55.7125429 Z M25.2620968,55.4664755 C24.8528226,55.5677974 24.5705645,55.8428138 24.6129032,56.1757285 C24.6552419,56.4652195 25.0221774,56.6533886 25.4455645,56.5520668 C25.8548387,56.4507449 26.1370968,56.1757285 26.0947581,55.8862375 C26.0524194,55.611221 25.671371,55.4230519 25.2620968,55.4664755 Z M34.5483871,0 C14.9737903,0 0,15.2417011 0,35.317902 C0,51.3701779 9.85080645,65.1065258 23.921371,69.9410255 C25.7278226,70.2739402 26.3629032,69.1304507 26.3629032,68.189605 C26.3629032,67.2921829 26.3205645,62.3418868 26.3205645,59.3022313 C26.3205645,59.3022313 16.4415323,61.4734138 14.3669355,54.9888154 C14.3669355,54.9888154 12.7580645,50.7767213 10.4435484,49.6911301 C10.4435484,49.6911301 7.21169355,47.4186257 10.6693548,47.4620494 C10.6693548,47.4620494 14.1834677,47.7515404 16.1169355,51.1964833 C19.2076613,56.7836596 24.3870968,55.1769845 26.4052419,54.2216642 C26.7298387,51.9057362 27.6471774,50.2990612 28.6633065,49.3437409 C20.7741935,48.4463188 12.8145161,47.2738802 12.8145161,33.3493632 C12.8145161,29.3688619 13.8870968,27.371374 16.1451613,24.8238532 C15.7782258,23.8830075 14.578629,20.0038281 16.5120968,14.9956338 C19.4616935,14.054788 26.25,18.9037623 26.25,18.9037623 C29.0725806,18.0931875 32.1068548,17.6734255 35.1129032,17.6734255 C38.1189516,17.6734255 41.1532258,18.0931875 43.9758065,18.9037623 C43.9758065,18.9037623 50.7641129,14.0403135 53.7137097,14.9956338 C55.6471774,20.0183026 54.4475806,23.8830075 54.0806452,24.8238532 C56.3387097,27.3858486 57.7217742,29.3833365 57.7217742,33.3493632 C57.7217742,47.3173039 49.4092742,48.4318442 41.5201613,49.3437409 C42.8185484,50.4872303 43.9193548,52.6584128 43.9193548,56.0599321 C43.9193548,60.9378554 43.8770161,66.9737428 43.8770161,68.1606559 C43.8770161,69.1015016 44.5262097,70.2449911 46.3185484,69.9120764 C60.4314516,65.1065258 70,51.3701779 70,35.317902 C70,15.2417011 54.1229839,0 34.5483871,0 Z M13.7177419,49.9227229 C13.5342742,50.0674684 13.5766129,50.400383 13.8165323,50.6753995 C14.0423387,50.9069923 14.3669355,51.0083141 14.5504032,50.820145 C14.733871,50.6753995 14.6915323,50.3424848 14.4516129,50.0674684 C14.2258065,49.8358756 13.9012097,49.7345537 13.7177419,49.9227229 Z M12.1935484,48.7502843 C12.0947581,48.9384535 12.2358871,49.1700463 12.5181452,49.3147918 C12.7439516,49.4595373 13.0262097,49.4161136 13.125,49.2134699 C13.2237903,49.0253008 13.0826613,48.793708 12.8004032,48.6489625 C12.5181452,48.5621152 12.2923387,48.6055388 12.1935484,48.7502843 Z M16.766129,53.9032241 C16.5403226,54.0913933 16.625,54.5256298 16.9495968,54.8006462 C17.2741935,55.1335609 17.6834677,55.1769845 17.8669355,54.9453917 C18.0504032,54.7572226 17.9657258,54.3229861 17.6834677,54.0479696 C17.3729839,53.715055 16.9495968,53.6716313 16.766129,53.9032241 Z M15.1572581,51.7754653 C14.9314516,51.9202108 14.9314516,52.2965491 15.1572581,52.6294637 C15.3830645,52.9623784 15.7641129,53.1071239 15.9475806,52.9623784 C16.1733871,52.7742092 16.1733871,52.3978709 15.9475806,52.0649563 C15.75,51.7320416 15.3830645,51.5872961 15.1572581,51.7754653 Z" id="icon"/>
    </symbol>
    <!--Skills: Web Developer-->
    <symbol id="icon-web-developer" viewBox="0 0 180 131">
        <path d="M18.6208594,0.218320313 L161.379492,0.218320313 C164.807578,0.218320313 167.586328,2.99707031 167.586328,6.42515625 L167.586328,124.356094 L12.4136719,124.356094 L12.4136719,6.42515625 C12.4136719,2.99707031 15.1927734,0.218320313 18.6208594,0.218320313 Z" fill="#35495E"/>
        <path d="M0,111.942422 L180,111.942422 L180,121.252852 C180,126.394805 175.831523,130.563281 170.68957,130.563281 L9.31042969,130.563281 C4.16847656,130.56293 0,126.394805 0,121.252852 L0,111.942422 Z" fill="#95A5A5"/>
        <path d="M114.827695,111.942422 L114.827695,115.046016 C114.8175,118.469883 112.044727,121.243008 108.620859,121.252852 L71.3791406,121.252852 C67.9552734,121.242656 65.1821484,118.469883 65.1723047,115.046016 L65.1723047,111.942422" fill="#BDC3C7"/>
        <path d="M155.172305,31.2528516 L155.172305,96.4251562 C155.172305,98.1390234 153.78293,99.52875 152.068711,99.52875 L49.6550391,99.52875 L49.6550391,31.2528516 L155.172305,31.2528516 Z" fill="#5E5F62"/>
        <path d="M49.6550391,31.2528516 L49.6550391,99.52875 L27.9309375,99.52875 C26.2170703,99.52875 24.8273438,98.139375 24.8273438,96.4251563 L24.8273438,31.2528516 L49.6550391,31.2528516 Z" fill="#A5A5A4"/>
        <path d="M155.172305,15.7355859 L155.172305,31.2528516 L24.8276953,31.2528516 L24.8276953,15.7355859 C24.8276953,14.0217187 26.2170703,12.6319922 27.9312891,12.6319922 L152.069063,12.6319922 C153.78293,12.6319922 155.172305,14.0213672 155.172305,15.7355859 Z" fill="#D1D4D1"/>
        <path d="M34.1377734,25.0456641 C32.8830469,25.0407422 31.7534766,24.2834766 31.2721875,23.1247266 C30.7908984,21.9659766 31.0521094,20.6310938 31.9341797,19.7388281 C32.0888672,19.6147266 32.2432031,19.4902734 32.4298828,19.3661719 C32.5884375,19.243125 32.7666797,19.1485547 32.9572266,19.0859766 C33.1333594,18.9966797 33.3217969,18.9344531 33.5165625,18.9010547 C34.5389062,18.6922266 35.5981641,19.0065234 36.3413672,19.7388281 C36.9077344,20.3340234 37.2294141,21.1208203 37.2413672,21.9424219 C37.2357422,22.1501953 37.215,22.3572656 37.1791406,22.5622266 C37.1446875,22.7566406 37.0817578,22.9450781 36.9928125,23.1215625 C36.9246094,23.3194922 36.8303906,23.5075781 36.7126172,23.6808984 C36.5899219,23.8355859 36.4654687,23.9899219 36.3413672,24.1460156 C35.7461719,24.7120312 34.959375,25.0333594 34.1377734,25.0456641 Z" fill="#E64C3C"/>
        <path d="M43.4482031,25.0456641 C42.6266016,25.0333594 41.8398047,24.7120312 41.2446094,24.1456641 C41.1205078,23.9895703 40.9960547,23.8348828 40.8719531,23.6805469 C40.7541797,23.5075781 40.6599609,23.3194922 40.5917578,23.1212109 C40.5024609,22.9450781 40.4402344,22.7566406 40.4068359,22.561875 C40.3702734,22.3572656 40.3498828,22.1498437 40.3449609,21.9420703 C40.3565625,21.1204687 40.6778906,20.3333203 41.2449609,19.7384766 C41.5357031,19.4508984 41.8844531,19.2283594 42.2676563,19.0852734 C43.4271094,18.6303516 44.7447656,18.8848828 45.6517969,19.7384766 C46.2181641,20.3336719 46.5394922,21.1204687 46.5517969,21.9420703 C46.5461719,22.1498437 46.5254297,22.3569141 46.4895703,22.561875 C46.4551172,22.7562891 46.3921875,22.9447266 46.3032422,23.1212109 C46.2350391,23.3191406 46.1408203,23.5072266 46.0230469,23.6805469 C45.9087891,23.8429687 45.7846875,23.9983594 45.6517969,24.1460156 C45.4957031,24.2701172 45.3410156,24.3945703 45.1866797,24.5172656 C45.0137109,24.6350391 44.825625,24.7292578 44.6273438,24.7974609 C44.4512109,24.8864062 44.2627734,24.9493359 44.0680078,24.9837891 C43.8633984,25.0192969 43.6559766,25.0400391 43.4482031,25.0456641 Z" fill="#46B29D"/>
        <path d="M52.7586328,25.0456641 C51.9331641,25.05375 51.1389844,24.7292578 50.5553906,24.1456641 C49.9717969,23.5620703 49.6473047,22.7678906 49.6553906,21.9424219 C49.6596094,21.5367188 49.7436328,21.1355859 49.9025391,20.761875 C50.0603906,20.3860547 50.2811719,20.0401172 50.5553906,19.7388281 C51.7995703,18.5902734 53.7176953,18.5902734 54.961875,19.7388281 C55.2353906,20.0404688 55.4558203,20.3864063 55.6136719,20.7615234 C55.7729297,21.1348828 55.8573047,21.5360156 55.8622266,21.9420703 C55.8499219,22.7636719 55.5285937,23.5501172 54.9622266,24.1456641 C54.3701953,24.7173047 53.5812891,25.0393359 52.7586328,25.0456641 Z" fill="#F0C419"/>
        <g transform="translate(34.101562, 37.265625)" fill="#D1D4D1">
            <path d="M3.13980469,6.40089844 C1.88507812,6.39597656 0.755507812,5.63871094 0.27421875,4.47996094 C-0.207070312,3.32121094 0.054140625,1.98632813 0.936210937,1.0940625 C1.67871094,0.361757812 2.73761719,0.0474609375 3.75925781,0.256289062 C3.95402344,0.2896875 4.14246094,0.351914062 4.31859375,0.441210937 C4.51652344,0.509414062 4.70460937,0.603632812 4.87792969,0.72140625 C5.03261719,0.845507813 5.18695312,0.969960937 5.34304687,1.0940625 C5.47664062,1.24101563 5.60074219,1.39640625 5.71429687,1.55917969 C5.83171875,1.73179688 5.92628906,1.91953125 5.99449219,2.11675781 C6.0834375,2.29289063 6.14636719,2.48132813 6.18082031,2.67609375 C6.21492187,2.88175781 6.23601562,3.08917969 6.24304687,3.29730469 C6.23742187,3.50507813 6.21667969,3.71214844 6.18082031,3.91710938 C6.14636719,4.11152344 6.0834375,4.29996094 5.99449219,4.47644531 C5.92628906,4.674375 5.83207031,4.86246094 5.71429687,5.03578125 C5.50160156,5.37363281 5.21578125,5.65945313 4.87792969,5.87214844 C4.70496094,5.98992188 4.516875,6.08414063 4.31859375,6.15234375 C4.14246094,6.24128906 3.95402344,6.30421875 3.75925781,6.33867188 C3.55464844,6.37453125 3.34757812,6.39527344 3.13980469,6.40089844 Z" id="Path"/>
            <path d="M3.13980469,18.8145703 C1.88507812,18.8096484 0.755507812,18.0523828 0.27421875,16.8936328 C-0.207070312,15.7348828 0.054140625,14.4 0.936210937,13.5077344 C1.67871094,12.7754297 2.73761719,12.4611328 3.75925781,12.6699609 C3.95402344,12.7033594 4.14246094,12.7655859 4.31859375,12.8548828 C4.51652344,12.9230859 4.70460937,13.0173047 4.87792969,13.1350781 C5.04035156,13.2500391 5.19574219,13.3744922 5.34339844,13.5077344 C5.47699219,13.6546875 5.60109375,13.8100781 5.71464844,13.9728516 C5.83207031,14.1454688 5.92664062,14.3332031 5.99484375,14.5304297 C6.08378906,14.7065625 6.14671875,14.895 6.18117187,15.0897656 C6.21703125,15.2950781 6.23777344,15.5028516 6.24304687,15.7113281 C6.23601562,15.9191016 6.21527344,16.1261719 6.18082031,16.3311328 C6.14636719,16.5255469 6.0834375,16.7139844 5.99449219,16.8904688 C5.92628906,17.0883984 5.83207031,17.2764844 5.71429687,17.4498047 C5.60003906,17.6122266 5.4759375,17.7676172 5.34304687,17.9152734 C4.74785156,18.4809375 3.96140625,18.8022656 3.13980469,18.8145703 Z" id="Path"/>
            <path d="M3.13980469,31.2285937 C1.73109375,31.2285937 0.498515625,30.2818359 0.134648437,28.9212891 C-0.22921875,27.5603906 0.36703125,26.1249609 1.58765625,25.4221875 C2.80828125,24.7194141 4.34882812,24.924375 5.34339844,25.9217578 C5.47699219,26.0687109 5.60109375,26.2241016 5.71464844,26.386875 C5.83207031,26.5594922 5.92664062,26.7472266 5.99484375,26.9444531 C6.08378906,27.1205859 6.14671875,27.3090234 6.18117187,27.5037891 C6.21527344,27.7094531 6.23601562,27.916875 6.24304687,28.1253516 C6.23742187,28.333125 6.21667969,28.5401953 6.18082031,28.7451562 C6.14636719,28.9395703 6.0834375,29.1280078 5.99449219,29.3044922 C5.92628906,29.5024219 5.83207031,29.6905078 5.71429687,29.8638281 C5.60003906,30.02625 5.4759375,30.1816406 5.34304687,30.3292969 C4.74785156,30.8946094 3.96140625,31.2159375 3.13980469,31.2285937 Z" id="Path"/>
            <path d="M3.13980469,43.6422656 C2.31820312,43.6299609 1.53140625,43.3086328 0.936210937,42.7422656 C0.661992187,42.4402734 0.440859375,42.0939844 0.283007812,41.7178125 C-0.04640625,40.9658203 -0.04640625,40.1104687 0.283007812,39.3584766 C0.433125,38.9787891 0.654960937,38.6314453 0.936210937,38.3354297 C2.18039062,37.186875 4.09851562,37.186875 5.34269531,38.3354297 C5.61621094,38.6370703 5.83664062,38.9830078 5.99449219,39.358125 C6.16851562,39.7269141 6.25394531,40.1312109 6.24304687,40.5386719 C6.25113281,41.3641406 5.92664062,42.1583203 5.34304687,42.7419141 C4.75945312,43.3258594 3.96527344,43.6503516 3.13980469,43.6422656 Z" id="Path"/>
            <path d="M3.13980469,56.0559375 C1.88507812,56.0510156 0.755507812,55.29375 0.27421875,54.135 C-0.207070312,52.97625 0.054140625,51.6413672 0.936210937,50.7491016 C1.67871094,50.0167969 2.73761719,49.7025 3.75925781,49.9113281 C3.95402344,49.9447266 4.14246094,50.0069531 4.31859375,50.09625 C4.51652344,50.1644531 4.70460937,50.2586719 4.87792969,50.3764453 C5.03261719,50.5005469 5.18695312,50.625 5.34304687,50.7491016 C5.90976562,51.3442969 6.23109375,52.1310937 6.24339844,52.9523437 C6.23777344,53.1601172 6.21703125,53.3671875 6.18117187,53.5721484 C6.14671875,53.7665625 6.08378906,53.955 5.99484375,54.1314844 C5.92664062,54.3294141 5.83242187,54.5175 5.71464844,54.6908203 C5.60039062,54.8532422 5.47628906,55.0086328 5.34339844,55.1562891 C4.74785156,55.7223047 3.96140625,56.0436328 3.13980469,56.0559375 Z" id="Path"/>
        </g>
        <path d="M71.3791406,43.6665234 L62.0687109,43.6665234 C60.3548438,43.6665234 58.9651172,42.2771484 58.9651172,40.5629297 C58.9651172,38.8490625 60.3544922,37.4593359 62.0687109,37.4593359 L71.3791406,37.4593359 C73.0930078,37.4593359 74.4827344,38.8487109 74.4827344,40.5629297 C74.4827344,42.2771484 73.0933594,43.6665234 71.3791406,43.6665234 Z" fill="#D75E72"/>
        <path d="M93.1035938,43.6665234 L83.7931641,43.6665234 C82.0792969,43.6665234 80.6895703,42.2771484 80.6895703,40.5629297 C80.6895703,38.8490625 82.0789453,37.4593359 83.7931641,37.4593359 L93.1035938,37.4593359 C94.8174609,37.4593359 96.2071875,38.8487109 96.2071875,40.5629297 C96.2068359,42.2771484 94.8174609,43.6665234 93.1035938,43.6665234 Z" fill="#F29C1F"/>
        <g transform="translate(102.304688, 37.265625)" fill="#ECF0F1">
            <path d="M9.41941406,6.40089844 L3.21257813,6.40089844 C1.49871094,6.40089844 0.108984375,5.01152344 0.108984375,3.29730469 C0.108984375,1.5834375 1.49835938,0.193710937 3.21257813,0.193710937 L9.41941406,0.193710937 C11.1332813,0.193710937 12.5230078,1.58308594 12.5230078,3.29730469 C12.5230078,5.01152344 11.1332813,6.40089844 9.41941406,6.40089844 Z" id="Path"/>
            <path d="M31.1435156,6.40089844 L21.8330859,6.40089844 C20.1192188,6.40089844 18.7294922,5.01152344 18.7294922,3.29730469 C18.7294922,1.5834375 20.1188672,0.193710937 21.8330859,0.193710937 L31.1435156,0.193710937 C32.8573828,0.193710937 34.2471094,1.58308594 34.2471094,3.29730469 C34.2471094,5.01152344 32.8577344,6.40089844 31.1435156,6.40089844 Z" id="Path"/>
        </g>
        <path d="M71.3791406,68.4942187 L62.0687109,68.4942187 C60.3548438,68.4942187 58.9651172,67.1048437 58.9651172,65.390625 C58.9651172,63.6764062 60.3544922,62.2870312 62.0687109,62.2870312 L71.3791406,62.2870312 C73.0930078,62.2870312 74.4827344,63.6764062 74.4827344,65.390625 C74.4827344,67.1048437 73.0933594,68.4942187 71.3791406,68.4942187 Z" fill="#D75E72"/>
        <path d="M93.1035938,68.4942187 L83.7931641,68.4942187 C82.0792969,68.4942187 80.6895703,67.1048437 80.6895703,65.390625 C80.6895703,63.6764062 82.0789453,62.2870312 83.7931641,62.2870312 L93.1035938,62.2870312 C94.8174609,62.2870312 96.2071875,63.6764062 96.2071875,65.390625 C96.2071875,67.1048437 94.8174609,68.4942187 93.1035938,68.4942187 Z" fill="#F29C1F"/>
        <g transform="translate(102.304688, 62.226563)" fill="#ECF0F1">
            <path d="M9.41941406,6.26765625 L3.21257813,6.26765625 C1.49871094,6.26765625 0.108984375,4.87828125 0.108984375,3.1640625 C0.108984375,1.44984375 1.49835938,0.06046875 3.21257813,0.06046875 L9.41941406,0.06046875 C11.1332813,0.06046875 12.5230078,1.44984375 12.5230078,3.1640625 C12.5230078,4.87828125 11.1332813,6.26765625 9.41941406,6.26765625 Z" id="Path"/>
            <path d="M31.1435156,6.26765625 L21.8330859,6.26765625 C20.1192188,6.26765625 18.7294922,4.87828125 18.7294922,3.1640625 C18.7294922,1.44984375 20.1188672,0.06046875 21.8330859,0.06046875 L31.1435156,0.06046875 C32.8573828,0.06046875 34.2471094,1.44984375 34.2471094,3.1640625 C34.2471094,4.87828125 32.8577344,6.26765625 31.1435156,6.26765625 Z" id="Path"/>
        </g>
        <path d="M71.3791406,93.3215625 L62.0687109,93.3215625 C60.3548438,93.3215625 58.9651172,91.9321875 58.9651172,90.2179687 C58.9651172,88.50375 60.3544922,87.114375 62.0687109,87.114375 L71.3791406,87.114375 C73.0930078,87.114375 74.4827344,88.50375 74.4827344,90.2179687 C74.4827344,91.9321875 73.0933594,93.3215625 71.3791406,93.3215625 Z" fill="#D75E72"/>
        <path d="M93.1035938,93.3215625 L83.7931641,93.3215625 C82.0792969,93.3215625 80.6895703,91.9321875 80.6895703,90.2179687 C80.6895703,88.50375 82.0789453,87.114375 83.7931641,87.114375 L93.1035938,87.114375 C94.8174609,87.114375 96.2071875,88.50375 96.2071875,90.2179687 C96.2071875,91.9321875 94.8174609,93.3215625 93.1035938,93.3215625 Z" fill="#F29C1F"/>
        <g transform="translate(102.304688, 86.835938)" fill="#ECF0F1">
            <path d="M9.41941406,6.485625 L3.21257813,6.485625 C1.49871094,6.485625 0.108984375,5.09625 0.108984375,3.38203125 C0.108984375,1.6678125 1.49835938,0.2784375 3.21257813,0.2784375 L9.41941406,0.2784375 C11.1332813,0.2784375 12.5230078,1.6678125 12.5230078,3.38203125 C12.5230078,5.09625 11.1332813,6.485625 9.41941406,6.485625 Z" id="Path"/>
            <path d="M31.1435156,6.485625 L21.8330859,6.485625 C20.1192188,6.485625 18.7294922,5.09625 18.7294922,3.38203125 C18.7294922,1.6678125 20.1188672,0.2784375 21.8330859,0.2784375 L31.1435156,0.2784375 C32.8573828,0.2784375 34.2471094,1.6678125 34.2471094,3.38203125 C34.2471094,5.09625 32.8577344,6.485625 31.1435156,6.485625 Z" id="Path"/>
        </g>
        <g transform="translate(68.203125, 49.570312)" fill="#F29C1F">
            <path d="M12.4864453,6.50988281 L3.17601562,6.50988281 C1.46214844,6.50988281 0.072421875,5.12050781 0.072421875,3.40628906 C0.072421875,1.69207031 1.46179687,0.302695312 3.17601562,0.302695312 L12.4864453,0.302695312 C14.2003125,0.302695312 15.5900391,1.69207031 15.5900391,3.40628906 C15.5900391,5.12050781 14.2006641,6.50988281 12.4864453,6.50988281 Z" id="Path"/>
            <path d="M34.2105469,6.50988281 L24.9001172,6.50988281 C23.18625,6.50988281 21.7965234,5.12050781 21.7965234,3.40628906 C21.7965234,1.69207031 23.1858984,0.302695312 24.9001172,0.302695312 L34.2105469,0.302695312 C35.9244141,0.302695312 37.3141406,1.69207031 37.3141406,3.40628906 C37.3141406,5.12050781 35.9247656,6.50988281 34.2105469,6.50988281 Z" id="Path"/>
        </g>
        <g transform="translate(111.445312, 49.570312)" fill="#ECF0F1">
            <path d="M9.58921875,6.50988281 L3.38238281,6.50988281 C1.66851562,6.50988281 0.278789063,5.12050781 0.278789063,3.40628906 C0.278789063,1.69207031 1.66816406,0.302695312 3.38238281,0.302695312 L9.58921875,0.302695312 C11.3030859,0.302695312 12.6928125,1.69207031 12.6928125,3.40628906 C12.6928125,5.12050781 11.3030859,6.50988281 9.58921875,6.50988281 Z" id="Path"/>
            <path d="M31.3133203,6.50988281 L22.0028906,6.50988281 C20.2890234,6.50988281 18.8992969,5.12050781 18.8992969,3.40628906 C18.8992969,1.69207031 20.2886719,0.302695312 22.0028906,0.302695312 L31.3133203,0.302695312 C33.0271875,0.302695312 34.4169141,1.69207031 34.4169141,3.40628906 C34.4169141,5.12050781 33.0271875,6.50988281 31.3133203,6.50988281 Z" id="Path"/>
        </g>
        <g transform="translate(68.203125, 74.531250)" fill="#F29C1F">
            <path d="M12.4864453,6.37664063 L3.17601562,6.37664063 C1.46214844,6.37664063 0.072421875,4.98726563 0.072421875,3.27304688 C0.072421875,1.55882813 1.46179687,0.169453125 3.17601562,0.169453125 L12.4864453,0.169453125 C14.2003125,0.169453125 15.5900391,1.55882813 15.5900391,3.27304688 C15.5900391,4.98726563 14.2006641,6.37664063 12.4864453,6.37664063 Z" id="Path"/>
            <path d="M34.2105469,6.37664063 L24.9001172,6.37664063 C23.18625,6.37664063 21.7965234,4.98726563 21.7965234,3.27304688 C21.7965234,1.55882813 23.1858984,0.169453125 24.9001172,0.169453125 L34.2105469,0.169453125 C35.9244141,0.169453125 37.3141406,1.55882813 37.3141406,3.27304688 C37.3141406,4.98726563 35.9247656,6.37664063 34.2105469,6.37664063 Z" id="Path"/>
        </g>
        <g transform="translate(111.445312, 74.531250)" fill="#ECF0F1">
            <path d="M9.58921875,6.37664063 L3.38238281,6.37664063 C1.66851562,6.37664063 0.278789063,4.98726563 0.278789063,3.27304688 C0.278789063,1.55882813 1.66816406,0.169453125 3.38238281,0.169453125 L9.58921875,0.169453125 C11.3030859,0.169453125 12.6928125,1.55882813 12.6928125,3.27304688 C12.6928125,4.98726563 11.3030859,6.37664063 9.58921875,6.37664063 Z" id="Path"/>
            <path d="M31.3133203,6.37664063 L22.0028906,6.37664063 C20.2890234,6.37664063 18.8992969,4.98726563 18.8992969,3.27304688 C18.8992969,1.55882813 20.2886719,0.169453125 22.0028906,0.169453125 L31.3133203,0.169453125 C33.0271875,0.169453125 34.4169141,1.55882813 34.4169141,3.27304688 C34.4169141,4.98726563 33.0271875,6.37664063 31.3133203,6.37664063 Z" id="Path"/>
        </g>
    </symbol>
    <!--Timeline: Top Cap-->
    <symbol id="timeline-top-cap" viewBox="0 0 94 81">
        <path d="M2.19331403,80.7220466 C0.731104676,80.0175527 0,78.9412424 0,77.5126852 C0,75.8884352 1.16976748,74.5772937 2.94530741,74.2054774 C4.21951842,73.9315075 89.7796543,73.9315075 91.0538653,74.2054774 C92.2654102,74.459878 93.0800696,75.027387 93.5813986,75.9471431 C94.4169468,77.4931159 93.978284,79.195643 92.4742972,80.3306611 L91.6596377,80.9373087 L47.2502508,80.9764472 C7.29015806,81.0351551 2.75730906,80.9960165 2.19331403,80.7220466 Z"/>
        <path d="M10.5139149,71.4839744 C8.45259263,70.1602564 8.51263115,66.9967949 10.5939663,65.6282051 C11.2343771,65.2019231 11.6946723,65.1570513 15.6572142,65.0897436 L20,65 L20,68.5 L20,72 L15.6572142,72 C11.5145568,72 11.2543899,71.9775641 10.5139149,71.4839744 Z"/>
        <path d="M22,57.1869121 C22,43.0086709 22.0208333,42.3315011 22.3958333,41.5696852 C22.875,40.6174153 23.75,39.7497915 24.6041667,39.3688836 C25.4166667,39.0091371 66.875,38.8398447 68.5625,39.1995911 C69.8333333,39.4746913 71,40.3846382 71.5833333,41.5485236 C71.9791667,42.3315011 72,42.8393784 72,57.1869121 L72,72 L47,72 L22,72 L22,57.1869121 Z M50.2291667,61.5885154 C51.625,60.847861 52.8958333,59.47236 53.6041667,57.9275665 C54.0625,56.8906504 54.1666667,56.3616115 54.1666667,55.0707567 C54.1458333,52.065816 52.625,49.5899142 50.0208333,48.3625441 C48.9583333,47.8546668 48.5,47.7700205 47,47.7700205 C45.4166667,47.7700205 45.0625,47.8546668 43.8333333,48.4683518 C41.6875,49.5264295 40.4166667,51.2405154 39.9166667,53.6529326 C39.25,56.9329735 41.125,60.4246299 44.2083333,61.7578078 C45.2708333,62.2022004 45.6875,62.2656851 47.3125,62.2022004 C48.8333333,62.1387158 49.375,62.032908 50.2291667,61.5885154 Z"/>
        <path d="M45.3157065,59.705289 C42.8092864,58.8043339 41.4257425,56.0013623 42.2277969,53.3585606 C42.5285674,52.3374781 43.8720085,50.8358862 44.8946279,50.375398 C45.9774014,49.8748673 48.0226402,49.8748673 49.1054136,50.375398 C50.128033,50.8358862 51.4714742,52.3374781 51.7722446,53.3585606 C52.9753262,57.3828269 49.2056704,61.0867536 45.3157065,59.705289 Z"/>
        <path d="M74,68.5 L74,65 L78.3627986,65.0897436 C82.3053277,65.1570513 82.7656229,65.2019231 83.4060337,65.6282051 C85.4873689,66.9967949 85.5474074,70.1602564 83.4860851,71.4839744 C82.7456101,71.9775641 82.4854432,72 78.3627986,72 L74,72 L74,68.5 Z"/>
        <path d="M13.1189802,61.3666667 C13.4164306,57.3363636 15.3994334,53.1575758 18.3541076,50.2939394 C19.0878187,49.5727273 19.7620397,49 19.8413598,49 C19.9405099,49 20,52.1606061 20,56 L20,63 L16.509915,63 L13,63 L13.1189802,61.3666667 Z"/>
        <path d="M74,56 C74,52.1606061 74.0594901,49 74.1189802,49 C74.4164306,49 76.3399433,50.9090909 77.3116147,52.1818182 C78.5410765,53.7515152 79.9886686,56.7636364 80.4447592,58.6515152 C80.6232295,59.3515152 80.8215297,60.6242424 80.8810198,61.4727273 L81,63 L77.490085,63 L74,63 L74,56 Z"/>
        <path d="M6.54929153,42.58 C5.46228375,41.72 6.09472464,40 7.51771665,40 C8.42685044,40 9,40.58 9,41.48 C9,42.26 8.26874022,43 7.51771665,43 C7.28055132,43 6.8457482,42.82 6.54929153,42.58 Z"/>
        <path d="M87.4971422,42.5 C86.4959991,41.52 87.0966849,40 88.4982853,40 C89.3792913,40 90,40.58 90,41.4 C90,42.16 89.2191084,43 88.4982853,43 C88.2179652,43 87.7574394,42.78 87.4971422,42.5 Z"/>
        <path d="M43.6089935,36.6857328 C41.5704026,36.2492839 39.0325649,34.9191539 37.4516169,33.4227576 C34.4561364,30.637798 33,27.3748229 33,23.4883493 C33,19.7889253 34.3313247,16.5883001 36.9731721,13.9280401 C38.2628928,12.6186934 38.9077532,12.1614612 40.5095032,11.3924798 C42.8185195,10.2701827 44.0250325,10 46.5212662,10 C49.0175,10 50.224013,10.2701827 52.5330292,11.3924798 C54.0931753,12.1406779 54.7796396,12.6186934 55.9653506,13.8241237 C58.6488019,16.5051669 59.813711,19.1654269 59.9801266,22.8856342 C60.1673441,27.0007238 59.0440389,29.9103832 56.0901623,32.8823923 C54.6548279,34.337222 53.9891656,34.8360208 52.5538311,35.5426523 C49.6623604,36.9559154 46.6460779,37.3507977 43.6089935,36.6857328 Z"/>
        <path d="M69.4971422,25.5 C68.4959991,24.52 69.0966849,23 70.4982853,23 C71.3792913,23 72,23.58 72,24.4 C72,25.16 71.2191084,26 70.4982853,26 C70.2179652,26 69.7574394,25.78 69.4971422,25.5 Z"/>
        <path d="M9.74340993,22.8748716 C7.54017142,22.1681523 6.33840496,19.3008914 7.37993589,17.2615016 C8.16108409,15.7269112 9.32279167,15 11.0052647,15 C12.2070312,15 12.9280911,15.2624957 13.6691804,15.969215 C16.2529783,18.4124443 14.8509174,22.7133357 11.3858241,22.9758314 C10.8049703,23.0364074 10.0438515,22.9758314 9.74340993,22.8748716 Z"/>
        <path d="M81.4140611,17.7042838 C79.9664178,17.2232859 78.8644803,16.4216226 78.0866421,15.299294 C76.4229325,12.854221 76.6822119,10.0884827 78.7780538,7.96407503 C80.1392707,6.58120587 81.5220942,6 83.509903,6 C85.4977118,6 86.8805353,6.58120587 88.2417522,7.96407503 C90.5968735,10.3490233 90.5752669,13.6759259 88.2417522,16.1410404 C86.729289,17.744367 83.6611493,18.4458224 81.4140611,17.7042838 Z"/>
        <path d="M25.5492915,5.58 C24.4622837,4.72 25.0947246,3 26.5177167,3 C27.4268504,3 28,3.58 28,4.48 C28,5.26 27.2687402,6 26.5177167,6 C26.2805513,6 25.8457482,5.82 25.5492915,5.58 Z"/>
        <path d="M64.3851656,2.4867821 C63.9264665,1.88303933 63.8882416,1.56104319 64.2131534,0.937175661 C64.9203146,-0.471557467 66.6022113,-0.250185119 66.965348,1.31954608 C67.2902599,2.68802969 65.2452264,3.63389336 64.3851656,2.4867821 Z"/>
    </symbol>
    <!--Timeline: SMART Technologies-->
    <symbol id="timeline-smart-technologies" viewBox="0 0 244 64">
        <path d="M102.061021,62.8642199 C100.693361,59.0696821 99.6353595,55.0428255 96.1775015,40.716509 C94.6292069,34.2632132 93.3131565,28.9456975 93.2615467,28.8940712 C93.2357418,28.8424448 89.5972494,34.9085428 85.2104147,42.3685527 C80.8235799,49.8027494 77.1592827,55.8946605 77.0818679,55.9204737 C76.9786483,55.9204737 73.030497,49.8027494 68.3081984,42.3169263 C61.805361,32.0432795 59.6635535,28.8424448 59.6119437,29.3328953 C59.3796995,31.7851476 56.7217937,62.2188904 56.7217937,62.6060881 C56.7217937,63.0707254 56.4379397,63.1223518 51.7672509,63.1997913 C49.0319304,63.2514177 46.7352934,63.2514177 46.7094885,63.2256045 C46.6578787,63.1997913 46.7869033,61.4961213 47.0191474,59.4310666 C47.2513916,57.366012 47.432026,55.5590892 47.432026,55.4558364 C47.432026,55.3525837 46.5288542,56.1269792 45.419243,57.2111329 C43.0193864,59.5601325 41.2388475,60.618473 37.935819,61.7542531 C34.4521561,62.9416595 31.2781522,63.4062968 26.5300487,63.4062968 C20.1820408,63.4062968 14.3243261,62.3737695 7.64085436,60.0763962 C5.06036334,59.1729348 0.363869665,57.1853197 0.00260092117,56.8239351 C-0.0490088994,56.7723088 0.673528588,54.7588805 1.62831027,52.3582545 L3.38304417,47.9700134 L4.49265531,48.7444089 C7.02153652,50.4480789 12.1309088,52.4615072 16.1822797,53.3391554 C21.265847,54.4491223 28.155758,54.6298146 31.89747,53.7263532 C35.1488887,52.9519577 38.1680632,50.9385294 39.2260645,48.8476616 C39.948602,47.4537497 40.1292364,44.7433655 39.6389431,43.5301459 C39.0712351,42.1878604 37.0326472,40.0453662 35.2779133,39.0128389 C33.1619106,37.7221797 30.168541,36.4573338 23.7431184,34.1341473 C14.0404721,30.6235544 10.3503699,28.868258 7.02153652,26.1836869 C3.74431291,23.5249291 2.32504285,20.7112922 2.09279865,16.2972379 C1.86055446,12.1671286 2.94436069,9.25023891 5.731291,6.48822833 C8.51822131,3.70040457 12.3889579,1.86766858 18.091843,0.628635798 C21.7045305,-0.145759691 30.8652736,-0.22319924 35.1746936,0.499569883 C39.0712351,1.17071264 45.0579743,3.00344863 46.6320738,4.01016277 C46.9159278,4.19085505 46.7352934,4.99106372 45.6256823,8.32096432 C44.8773399,10.5925244 44.2322171,12.4510736 44.2064122,12.5027 C44.1806073,12.5543263 43.4580698,12.2445681 42.6323127,11.805744 C39.0712351,10.0246344 35.5617673,9.09535981 30.7878589,8.70816207 C25.0591688,8.24352478 19.536918,9.04373345 15.8210109,10.8764694 C13.7308132,11.8831836 13.1114953,12.3994472 12.3631529,13.6126668 C10.6858338,16.3488642 13.1114953,19.4464462 19.1756493,22.3633359 C20.5949193,23.0602918 24.3108264,24.50583 27.4332205,25.5899837 C40.7227493,30.2363567 45.4966577,32.9983672 48.2577831,37.618927 L49.1351501,39.0644652 L51.0447135,20.5822262 C52.0769099,10.4118321 53.0058866,1.9967345 53.1091063,1.89348176 C53.2123259,1.76441585 58.5023325,9.97300803 64.8761454,20.1434021 C71.2499582,30.287983 76.5141599,38.599828 76.5915746,38.599828 C76.6689894,38.599828 81.4170928,30.7784335 87.1457829,21.2017426 C92.874473,11.6250517 97.6483814,3.77784412 97.7257961,3.77784412 C97.8032109,3.77784412 98.3709189,6.82379971 98.9902367,10.5667112 C100.280482,18.3364793 102.086826,27.6550384 103.78995,35.2699273 C105.493074,42.7815636 107.892931,51.8419908 108.09937,51.6096722 C108.20259,51.4806063 113.750645,40.5616299 120.434117,27.2936538 C127.091784,14.0514909 132.614035,3.15832773 132.665645,3.10670136 C132.717254,3.055075 138.26531,11.9606231 145.000392,22.9312259 C151.735473,33.9018287 157.257724,42.704124 157.283529,42.4976186 C157.309334,42.2911131 156.096503,33.9792682 154.548209,24.0411928 C152.251572,9.121173 151.812888,5.92033831 152.122547,5.68801966 C152.56123,5.30082192 158.289921,3.93272322 161.876803,3.33902001 C164.096025,2.97763545 166.134613,2.87438272 171.166571,2.87438272 C178.004872,2.9001959 180.120875,3.13251455 184.223855,4.34573415 L186.133419,4.91362417 L214.596235,4.99106372 C230.23401,5.04269009 243.033246,5.171756 243.00748,5.27500873 C243.00748,5.37826147 242.284904,7.26262382 241.407537,9.45674438 L239.807632,13.4577877 L229.563083,13.354535 L219.318533,13.2770955 L219.189509,13.8707987 C219.112094,14.20637 217.176726,25.5125442 214.905894,39.0128389 C212.609257,52.4873204 210.699693,63.5611759 210.648084,63.6128023 C210.519059,63.7418682 201.151877,63.6644286 201.022852,63.5353627 C200.971242,63.4837363 201.100267,62.3221431 201.332511,60.9282312 C201.564755,59.5601325 201.745389,58.4243525 201.69378,58.3985393 C201.64217,58.3727261 200.351924,57.8564625 198.777825,57.2369461 C187.501079,52.7712654 173.489013,43.4785195 167.1152,36.2508283 C166.160418,35.1408614 165.360466,34.3922791 165.360466,34.5987846 C165.360466,34.8052901 166.418467,41.1553331 167.682908,48.6927825 C168.973153,56.2302319 170.00535,62.6319013 170.00535,62.8900331 C170.00535,63.3804836 169.798911,63.4062968 165.412076,63.4062968 L160.792997,63.4062968 L155.141722,54.8879464 L149.490446,46.3954092 L134.471988,46.369596 L119.479336,46.369596 L115.29894,54.8621332 L111.118545,63.3288572 L109.260591,63.5095495 C108.2542,63.5869891 106.318831,63.7418682 104.951171,63.8193077 L102.4739,64 L102.061021,62.8642199 Z M203.396904,49.5446175 C203.577538,48.6927825 208.970764,14.0514909 208.970764,13.7675459 C208.970764,13.6642932 205.203247,13.5868537 200.609973,13.5868537 L192.249182,13.5868537 L192.249182,15.3679633 C192.197573,19.6013253 190.262204,22.9312259 186.262443,25.5899837 C183.346488,27.5259725 178.52097,29.2296425 174.598624,29.720093 C173.772867,29.8233457 173.101939,30.0298512 173.101939,30.1589171 C173.101939,30.287983 173.772867,31.1140049 174.598624,31.9658399 C178.391946,35.9410701 188.455861,43.0138822 195.784455,46.8342333 C198.829435,48.4346507 202.700171,50.2415735 203.087245,50.2415735 C203.16466,50.2415735 203.319489,49.9318153 203.396904,49.5446175 Z M141.826388,34.0308946 C140.639362,31.7851476 138.291115,27.319467 136.587991,24.1186323 L133.491402,18.2590398 L128.665884,27.8615438 C126.007978,33.1532463 123.840365,37.618927 123.840365,37.7996193 C123.81456,38.0319379 125.982173,38.1093775 133.90428,38.1093775 L143.968195,38.1093775 L141.826388,34.0308946 Z M171.966523,22.389149 C181.307901,20.4789735 186.468883,16.5295565 183.785172,13.354535 C181.746584,10.9022826 174.134135,9.30186528 167.760323,9.94719485 C165.231441,10.2053267 162.263877,10.9280958 161.799388,11.3927331 C161.721974,11.4443595 162.057437,13.9740514 162.496121,16.9941938 C163.115439,21.0468635 163.450903,22.5956545 163.786366,22.8279732 C164.354074,23.3184236 168.53447,23.086105 171.966523,22.389149 Z" id="Shape"/>
        <path d="M225.758345,62.9055254 C224.288599,62.5685838 223.452364,62.1538864 222.540107,61.3244917 C220.740935,59.6657023 220.031402,57.5403784 220.563552,55.3372987 C221.501149,51.3199181 226.062431,49.2982685 229.686116,51.3199181 C234.652845,54.067288 233.664567,61.2726545 228.115008,62.7500139 C226.746623,63.0869555 226.619921,63.1128741 225.758345,62.9055254 Z M228.82454,61.0393873 C231.358586,59.4583536 232.017438,55.7779146 230.142244,53.6007535 C229.077945,52.3566615 228.191029,51.9419641 226.59458,51.9419641 C225.023472,51.9419641 223.984513,52.4862544 222.945555,53.885858 C221.627851,55.6742403 221.906596,58.7844704 223.503045,60.2877483 C224.947451,61.6095961 227.380134,61.9465377 228.82454,61.0393873 Z" id="Shape"/>
        <path d="M224.320049,56.5413534 L224.399496,53.4135338 L226.465128,53.4135338 C228.345383,53.4135338 228.610208,53.4643927 229.06041,54.0238401 C229.695989,54.7867229 229.695989,55.447888 229.033927,56.0836237 C228.557243,56.5413534 228.530761,56.6685005 228.875033,57.1770891 C229.086892,57.4822422 229.351717,58.1688367 229.431164,58.7028547 C229.616542,59.6183141 229.590059,59.6437435 228.822068,59.6437435 C228.133524,59.6437435 228.001111,59.5165964 227.842217,58.8300018 C227.603874,57.7365365 227.259602,57.3550951 226.491611,57.3550951 C225.961962,57.3550951 225.882514,57.5076716 225.803067,58.4485604 C225.723619,59.4148787 225.644172,59.5165964 224.98211,59.5928847 L224.240602,59.6691729 L224.320049,56.5413534 Z M227.577392,55.3207409 C227.577392,54.7867229 227.44498,54.6595758 226.729953,54.6087169 C225.908997,54.5324286 225.856032,54.5832875 225.856032,55.3207409 C225.856032,56.0581943 225.908997,56.1090531 226.729953,56.0327648 C227.44498,55.981906 227.577392,55.8547588 227.577392,55.3207409 Z" id="Shape"/>
    </symbol>
    <!--Timeline: Mobify-->
    <symbol id="timeline-mobify" viewBox="0 0 296 75">
        <path d="M261.267067,73.6977099 C260.238789,73.4697201 259.267638,73.1277354 259.096258,72.956743 C258.924879,72.8427481 259.153385,71.3038168 259.610397,69.6508906 L260.353042,66.573028 L262.52385,66.7440204 C266.065696,67.0860051 268.236504,65.2050891 270.350186,60.1323155 L271.606969,57.1114504 L264.866038,42.292112 L258.067981,27.529771 L252.183947,27.529771 L246.299914,27.529771 L246.299914,42.3491094 L246.299914,57.1684478 L241.729791,57.1684478 L237.159669,57.1684478 L237.159669,42.3491094 L237.159669,27.529771 L234.303342,27.529771 L231.447015,27.529771 L231.447015,23.8249364 L231.447015,20.1201018 L234.246215,20.1201018 L236.988289,20.1201018 L237.388175,14.8763359 C238.016567,5.81374046 241.1014,1.48193384 247.785204,0.227989822 C250.755784,-0.341984733 257.496715,0.227989822 258.296487,1.13994911 C258.524993,1.36793893 258.182234,3.19185751 257.610968,5.12977099 L256.525564,8.66361323 L253.78349,8.3216285 C248.813482,7.75165394 246.299914,10.5445293 246.299914,16.5862595 L246.299914,20.1201018 L255.954299,20.1201018 L265.608683,20.1201018 L268.236504,26.3898219 C269.664667,29.8666667 272.063982,35.5094148 273.492145,38.9292621 C274.977435,42.4061069 276.234219,45.1419847 276.348472,45.0279898 C276.462725,44.9139949 278.005141,40.9811705 279.718937,36.3073791 C281.48986,31.6335878 283.546415,26.1048346 284.346187,23.9959288 L285.831477,20.1201018 L290.972865,20.1201018 C294.857469,20.1201018 296.057127,20.2910941 295.82862,20.8610687 C289.944587,35.2244275 278.347901,62.5262087 276.805484,65.5470738 C273.149386,72.8997455 268.407883,75.4076336 261.267067,73.6977099 Z" id="Path" fill="#010101"/>
        <path d="M144.043416,57.7954198 C138.559269,56.0284987 134.389032,52.2666667 131.875464,46.9089059 C130.333048,43.7740458 130.104542,42.5770992 130.104542,38.6442748 C130.104542,32.7735369 132.046844,28.156743 136.159954,24.3379135 C140.558698,20.2910941 143.243645,19.2651399 150.041702,19.2651399 C157.296772,19.2651399 160.438732,20.519084 164.780348,25.1928753 C169.578977,30.3796438 171.235647,36.8203562 169.521851,43.4890585 C168.493573,47.4788804 165.58012,52.2096692 163.009426,54.1475827 C158.953442,57.1684478 156.497001,57.9664122 150.8986,58.1374046 C147.928021,58.194402 144.843188,58.0804071 144.043416,57.7954198 Z M155.125964,49.0178117 C158.210797,47.307888 160.610111,42.7480916 160.610111,38.7012723 C160.610111,32.7165394 156.554127,27.7007634 151.24136,27.1307888 C147.813767,26.7318066 145.071694,27.7577608 142.672379,30.3796438 C137.759497,35.794402 138.902028,45.3699746 144.900314,48.9608142 C147.928021,50.7847328 152.041131,50.7847328 155.125964,49.0178117 Z" id="Shape" fill="#010101"/>
        <path d="M182.318195,57.9664122 C181.518423,57.7954198 179.518995,57.2824427 177.862325,56.8264631 L174.891745,55.9715013 L175.005998,30.2086514 L175.177378,4.44580153 L179.91888,4.27480916 L184.603256,4.10381679 L184.603256,13.2234097 L184.603256,22.4 L187.059697,21.0890585 C190.658669,19.2081425 197.685233,18.9801527 201.68409,20.6900763 C212.709512,25.4778626 215.508712,42.2351145 206.825478,51.6966921 C205.111682,53.5776081 202.655241,55.4585242 200.712939,56.4274809 C197.742359,57.9094148 196.828335,58.0234097 190.601542,58.1374046 C186.831191,58.194402 183.117966,58.0804071 182.318195,57.9664122 Z M195.343045,49.4737913 C199.798915,47.5928753 202.255356,43.6600509 202.312482,38.3592875 C202.312482,30.1516539 195.228792,25.021883 188.65924,28.5557252 C185.231648,30.3796438 184.603256,32.3745547 184.603256,41.6081425 C184.603256,47.5358779 184.774636,49.7587786 185.345901,49.929771 C186.945444,50.6137405 193.343616,50.2717557 195.343045,49.4737913 Z" id="Shape" fill="#010101"/>
        <path d="M74.0634105,50.7847328 C74.4061697,44.2300254 75.4915738,9.11959288 75.4915738,5.92773537 L75.4915738,4.16081425 L80.0045701,4.16081425 C85.3744644,4.16081425 83.9463011,2.62188295 93.2007998,18.2961832 L99.6560983,29.2966921 L102.912311,23.7109415 C104.683233,20.6330789 107.996572,15.0473282 110.167381,11.2854962 L114.109112,4.44580153 L118.793488,4.27480916 C121.364182,4.16081425 123.477863,4.16081425 123.477863,4.27480916 C123.70637,8.20763359 125.19166,51.1267176 125.19166,53.6346056 L125.19166,57.1684478 L120.450157,57.1684478 L115.651528,57.1684478 L115.308769,49.3597964 C115.080263,45.0849873 114.908883,38.2452926 114.851757,34.1414758 C114.851757,30.037659 114.62325,25.4778626 114.451871,24.0529262 L114.051985,21.3740458 L107.939446,31.7475827 L101.884033,42.0641221 L99.3704656,42.0641221 L96.9140246,42.0641221 L90.6301057,31.8045802 L84.3461868,21.5450382 L84.0034276,32.3745547 C83.7749215,38.3592875 83.6035418,46.3389313 83.5464153,50.2147583 L83.4892888,57.1684478 L78.6335333,57.1684478 L73.7777778,57.1684478 L74.0634105,50.7847328 Z" id="Path" fill="#010101"/>
        <polygon fill="#010101" points="216.708369 38.8152672 216.879749 20.4050891 221.621251 20.2340967 226.305627 20.0631043 226.305627 38.6442748 226.305627 57.1684478 221.449871 57.1684478 216.594116 57.1684478"/>
        <path d="M218.536418,13.9073791 C212.880891,10.3735369 216.822622,1.48193384 223.163668,3.59083969 C225.962868,4.50279898 227.162525,6.15572519 227.162525,9.06259542 C227.162525,13.6793893 222.363896,16.3582697 218.536418,13.9073791 Z" id="Path" fill="#010101"/>
        <path d="M3.00038986,35.1555556 C2.88499025,34.8698413 2.01949318,32.5269841 1.1539961,29.8984127 C-0.692397661,24.2984127 -0.980896686,24.8126984 5.7122807,21.4412698 C13.2709552,17.6698413 13.6748538,17.2698413 17.8292398,10.184127 C19.9641326,6.52698413 22.0413255,3.55555556 22.3875244,3.55555556 C23.4261209,3.55555556 32.6003899,7.0984127 32.6003899,7.4984127 C32.6003899,8.64126984 29.0807018,18.0126984 27.522807,21.0984127 C24.0608187,27.8984127 20.7719298,30.184127 9.34736842,33.784127 C3.05808967,35.784127 3.34658869,35.7269841 3.00038986,35.1555556 Z" id="Path" fill="#015D82"/>
        <path d="M43.4432749,44.673752 C39.794152,40.8193237 36.0888889,35.9446055 34.4046784,32.7703704 C33.1134503,30.2196457 32.8888889,29.1993559 32.9450292,25.0048309 C32.9450292,19.6199678 35.1906433,8 36.2011696,8 C36.5380117,8.05668277 38.9520468,8.51014493 41.5906433,9.02028986 L46.3625731,10.0405797 L46.5309942,18.3162641 L46.6994152,26.5919485 L50.2923977,32.9404187 C52.3134503,36.3980676 53.9415205,39.4589372 53.9415205,39.6856683 C53.9415205,40.0824477 52.594152,41.2727858 46.5871345,46.3742351 C45.8573099,46.9977456 45.4081871,46.7143317 43.4432749,44.673752 Z" id="Path" fill="#B41E24"/>
        <path d="M3.17547893,34.2707071 C3.40229885,34.1010101 3.34559387,33.6484848 3.06206897,33.3090909 C2.83524904,32.969697 1.98467433,30.9333333 1.30421456,28.7838384 L0,24.8808081 L1.36091954,23.9191919 C2.04137931,23.3535354 4.47969349,22.0525253 6.63448276,20.9777778 C8.84597701,19.959596 10.8306513,18.8848485 11.0574713,18.5454545 C11.2842912,18.2626263 11.5111111,18.2060606 11.5111111,18.4888889 C11.5111111,18.7151515 12.5318008,17.979798 13.7226054,16.7919192 C14.9701149,15.5474747 15.8773946,14.4727273 15.8773946,14.3030303 C15.6505747,13.6242424 21.8314176,3.55555556 22.4551724,3.55555556 C22.7954023,3.55555556 25.1770115,4.34747475 27.7854406,5.30909091 L32.491954,7.11919192 L23.3057471,12.040404 L14.0628352,16.9616162 L8.95938697,25.7858586 C6.18084291,30.6505051 3.62911877,34.6666667 3.34559387,34.6666667 C3.06206897,34.6666667 3.00536398,34.4969697 3.17547893,34.2707071 Z" id="Path" fill="#098AA9"/>
        <path d="M46.4,46.8571429 C46.569697,46.2857143 46.7393939,41.5428571 46.7393939,36.3428571 C46.7393939,28.0571429 46.8525253,26.9714286 47.5878788,27.6 C48.040404,28 48.3232323,28.5142857 48.1535354,28.7428571 C47.9838384,29.0285714 48.0969697,29.3142857 48.379798,29.4285714 C48.9454545,29.6 54.6585859,39.3714286 54.6585859,40.1714286 C54.6585859,40.6857143 48.7191919,45.8857143 48.1535354,45.8857143 C47.8707071,45.8857143 47.3616162,46.3428571 46.9090909,46.9142857 C46.1171717,47.8285714 46.1171717,47.8285714 46.4,46.8571429 Z" id="Path" fill="#D92541"/>
        <path d="M43.3454545,20.0571429 C41.3090909,16.5142857 38.9333333,12.4 38.0282828,10.8 L36.4444444,8 L37.7454545,8.4 C38.4808081,8.62857143 39.6121212,8.85714286 40.2343434,8.97142857 C40.8565657,9.08571429 42.610101,9.37142857 44.0808081,9.6 C45.6080808,9.82857143 46.9656566,10.3428571 47.0787879,10.6857143 C47.2484848,11.0857143 47.2484848,14.7428571 47.1919192,18.9142857 L47.0222222,26.4 L43.3454545,20.0571429 Z" id="Path" fill="#D92541"/>
        <path d="M28.8180354,54.3361823 L22.0727858,50.1196581 L14.1938808,50.1196581 C5.18132045,50.1196581 6.37165862,50.974359 4.95458937,43.3960114 C4.04766506,38.3817664 3.5942029,38.7806268 12.4933977,37.2991453 C20.8824477,35.8746439 25.7571659,36.2735043 29.8383253,38.7806268 C33.0692432,40.7179487 43.1587762,49.2649573 43.1587762,50.005698 C43.1587762,50.2336182 41.4582931,52.2279202 39.3043478,54.5071225 L35.5066023,58.6096866 L28.8180354,54.3361823 Z" id="Path" fill="#EF4D34"/>
        <path d="M29.3281804,54.4679739 L22.8096618,50.3267974 L28.0244767,50.1542484 C30.9152979,50.096732 35.6199678,50.096732 38.3974235,50.1542484 L43.4988728,50.3267974 L39.7011272,54.4679739 L35.8466989,58.6091503 L29.3281804,54.4679739 Z" id="Path" fill="#F38534"/>
        <path d="M6.42834138,49.0614379 C6.031562,47.5084967 5.57809984,44.8627451 5.29468599,42.4470588 C5.18132045,41.2392157 4.8979066,40.0313725 4.67117552,39.6862745 C4.50112721,39.3986928 4.44444444,39.1111111 4.55780998,39.1111111 C4.84122383,39.1111111 21.3925926,49.3490196 21.9027375,49.8091503 C22.0161031,49.924183 18.6718196,50.0392157 14.4206119,50.0392157 C7.56199678,50.0392157 6.71175523,49.924183 6.42834138,49.0614379 Z" id="Path" fill="#F38534"/>
    </symbol>
</svg>
